<svg id="Ouest-France" xmlns="http://www.w3.org/2000/svg" viewBox="0 0 207.5 69.62"><defs><style>.cls-1{fill:#e2001a;}</style></defs><title>ouest-france</title><path class="cls-1" d="M189.21,33.72V53.56h-23v-3h20V32.7a30.74,30.74,0,0,0-20,58V71.05h23v3h-20V91.79a30.74,30.74,0,0,0,20-58.07Z" transform="translate(-1.17 -24.31)"/><path class="cls-1" d="M33.22,32.37c9.33,0,13.64,6.46,13.64,14.34s-4.6,14.58-13.64,14.58c-10.28,0-13.88-7.16-13.88-14.58C19.35,37.71,24.48,32.37,33.22,32.37Zm0,24.22c5.87,0,7.78-6.51,7.78-9.88,0-2.8-1.63-9.65-7.78-9.65-5.78,0-8.28,4.87-8.28,9.65,0,3.52,1.55,9.88,8.28,9.9Z" transform="translate(-1.17 -24.31)"/><path class="cls-1" d="M67.59,60.82V57.07h-.11a9.35,9.35,0,0,1-8.31,4.33c-5.78,0-10.28-3-10.28-10.16V33.18h6.26v18c0,4.53,2.7,5.78,5.66,5.78,6.48,0,6.58-6.09,6.58-8.76v-15h5.93V60.82Z" transform="translate(-1.17 -24.31)"/><path class="cls-1" d="M101.56,50.31c-.75,5.71-4.4,10.55-12.69,10.55S75.74,55.09,75.74,47.24s4-14.88,13.09-14.88c8.47,0,13.12,6,13.12,15.59H81.52c0,3.92,1.65,8.43,7.51,8.43a6.72,6.72,0,0,0,7.07-6.09Zm-5.71-6.26c-.25-3.75-2.6-7.36-6.94-7.36a7.26,7.26,0,0,0-7.38,7.13h0v.23Z" transform="translate(-1.17 -24.31)"/><path class="cls-1" d="M140.76,82.88c-.74,5.71-4.4,10.55-12.69,10.55s-13.12-5.74-13.12-13.59S119,65,128,65c8.47,0,13.11,6,13.11,15.59H120.73c0,3.92,1.65,8.43,7.51,8.43a6.72,6.72,0,0,0,7.07-6.11ZM135,76.62c-.25-3.75-2.6-7.36-6.94-7.36a7.24,7.24,0,0,0-7.38,7.1h0v.25Z" transform="translate(-1.17 -24.31)"/><path class="cls-1" d="M119.49,40.14c0-1.25-1.36-3.57-5.46-3.57-1.6,0-5.58-.08-5.58,3.09,0,3,3,3.22,7.77,4.1,5.68,1.08,10.25,2.31,10.25,8.33,0,5.61-5.24,8.76-11.86,8.76-12.74,0-12-7.32-12.12-10.51H108c.16,2.13-.41,6.06,6.54,6.06,3.53,0,6-.8,6-3.75s-2.5-3.58-7.32-4.25c-7-1-10.28-3.23-10.28-8.53,0-6,5.83-7.68,11.61-7.68,10.28,0,11,7.58,11,8Z" transform="translate(-1.17 -24.31)"/><path class="cls-1" d="M135.69,37.2V53.86c0,2.13,1.46,2.13,2.5,2.13h2.74v4.24H134c-1.5,0-4-1.86-4-5.14V37.2h-4.48v-4H130V24.31h5.69v8.87h5.2v4Z" transform="translate(-1.17 -24.31)"/><path class="cls-1" d="M11.39,70.54V93.06H5.71V70.54H1.17v-4.6H5.71V61.57a5.92,5.92,0,0,1,6-5.87h5.41v4.85h-3c-1.88,0-2.67.69-2.67,2.87v2.5h5.69v4.6Z" transform="translate(-1.17 -24.31)"/><path class="cls-1" d="M25.31,93.11H20V65.94h5.28v4.78h0a9.26,9.26,0,0,1,8.23-5.34H36v5.18H33.7a8.1,8.1,0,0,0-8.42,7.51Z" transform="translate(-1.17 -24.31)"/><path class="cls-1" d="M35.6,74.26C35.82,67.76,40.73,65,48,65c3.75,0,10.87,1,10.87,8.08v20H53.54v-2.8a13.09,13.09,0,0,1-9.45,3.67c-6.88,0-9.45-4-9.45-8.1,0-2.28.23-7.33,8.42-8.27l7.64-1.25a2.75,2.75,0,0,0,2.59-2.9v-.06c0-2.5-1.63-3.42-5.67-3.42-4.29,0-6,1.49-6,4.24Zm17.94,5.29c-.79.58-1.89,1-8,1.71-2.41.31-4.78.74-4.78,4.17,0,2.75,2,3.75,4.83,3.75,3.64,0,8-1.91,8-5.14Z" transform="translate(-1.17 -24.31)"/><path class="cls-1" d="M85.61,93.11H79.68V76.68c0-5-1.79-7.12-5.78-7.12-2.85,0-6.64,2-6.64,8v15.5H61.46V65.94h5.79v3.65h0c1.59-2.16,4.44-4.87,8.35-4.87,2.5,0,10,1.43,10,10.21Z" transform="translate(-1.17 -24.31)"/><path class="cls-1" d="M107.74,74.63a5.94,5.94,0,0,0-6.26-5c-6.07,0-7.73,4.9-7.73,9.75,0,4.18,1.15,9.7,7.77,9.7,3.55,0,5.56-2.7,6.26-6.26h6c-.5,4.32-3.62,10.9-12.2,10.9C92.7,93.71,88.2,88,88.2,79.35c0-10,6.26-14.61,13.58-14.61,6.59,0,11.54,4.37,12,9.92Z" transform="translate(-1.17 -24.31)"/></svg>